<mxfile host="app.diagrams.net" modified="2023-04-27T09:26:08.228Z" agent="Mozilla/5.0 (Windows NT 10.0; Win64; x64) AppleWebKit/537.36 (KHTML, like Gecko) Chrome/112.0.0.0 Safari/537.36" version="21.2.3" etag="hbgf2uVVE1ee6cfNb1GS" type="github">
  <diagram name="Page-1" id="De6083DY0pWdeYdgBwVE">
    <mxGraphModel>
      <root>
        <mxCell id="0" />
        <mxCell id="1" parent="0" />
      </root>
    </mxGraphModel>
  </diagram>
</mxfile>
